<svg width="188" height="32" viewBox="0 0 188 32" fill="none" xmlns="http://www.w3.org/2000/svg">
<g clip-path="url(#clip0_467_4513)">
<path d="M0 0H28V28H0V24.8889L24.8889 24.8889V15.5555H6.22222V12.4444H24.8889V3.11111L0 3.11111V0Z" fill="white"/>
<path d="M21.7778 6.22222H0V21.7778H21.7778V18.6667H3.11111V9.33333H21.7778V6.22222Z" fill="white"/>
<path d="M44.8772 17.6967H48.0716C47.9735 16.828 47.7353 16.0574 47.3571 15.3849C46.9788 14.7124 46.4954 14.152 45.907 13.7037C45.3325 13.2413 44.674 12.8911 43.9315 12.6529C43.2029 12.4147 42.4253 12.2956 41.5987 12.2956C40.4499 12.2956 39.4131 12.4988 38.4884 12.9051C37.5777 13.3114 36.8071 13.8718 36.1766 14.5863C35.5462 15.3009 35.0628 16.1415 34.7265 17.1082C34.3903 18.0609 34.2222 19.0977 34.2222 20.2186C34.2222 21.3114 34.3903 22.3342 34.7265 23.2869C35.0628 24.2256 35.5462 25.0452 36.1766 25.7457C36.8071 26.4463 37.5777 26.9997 38.4884 27.406C39.4131 27.7983 40.4499 27.9944 41.5987 27.9944C42.5234 27.9944 43.3711 27.8543 44.1416 27.5741C44.9122 27.2939 45.5847 26.8876 46.1592 26.3552C46.7336 25.8228 47.1959 25.1783 47.5462 24.4217C47.8965 23.6652 48.042 23.0191 48.042 22.5793H44.8476C44.8476 22.8035 44.5269 23.7002 43.9525 24.3166C43.3921 24.9331 42.6075 25.2413 41.5987 25.2413C40.8562 25.2413 40.2257 25.1012 39.7073 24.821C39.1889 24.5268 38.7686 24.1415 38.4463 23.6652C38.1241 23.1888 37.8859 22.6564 37.7318 22.068C37.5917 21.4655 37.5217 20.849 37.5217 20.2186C37.5217 19.5601 37.5917 18.9226 37.7318 18.3061C37.8859 17.6897 38.1241 17.1433 38.4463 16.6669C38.7686 16.1765 39.1889 15.7912 39.7073 15.511C40.2257 15.2168 40.8562 15.0697 41.5987 15.0697C42.005 15.0697 42.3903 15.1397 42.7546 15.2798C43.1329 15.4059 43.4691 15.5881 43.7633 15.8263C44.0576 16.0644 44.3028 16.3447 44.4989 16.6669C44.6951 16.9751 44.8211 17.3184 44.8772 17.6967Z" fill="white"/>
<path d="M53.6367 18.8946V20.9962C54.0009 20.9962 54.3792 21.0102 54.7715 21.0382C55.1778 21.0522 55.5491 21.1293 55.8853 21.2694C56.2216 21.3955 56.4948 21.6056 56.705 21.8998C56.9291 22.1941 57.0412 22.6214 57.0412 23.1818C57.0412 23.8963 56.81 24.4638 56.3477 24.8841C55.8853 25.2904 55.3179 25.4935 54.6454 25.4935C54.2111 25.4935 53.8328 25.4165 53.5106 25.2624C53.2023 25.1082 52.9431 24.9051 52.733 24.6529C52.5228 24.3867 52.3617 24.0785 52.2496 23.7282C52.1375 23.3639 52.0745 22.9856 52.0605 22.5934H49.2233C49.2093 23.448 49.3284 24.2046 49.5806 24.8631C49.8468 25.5216 50.2181 26.082 50.6944 26.5443C51.1708 26.9927 51.7452 27.3359 52.4177 27.5741C53.1043 27.8123 53.8608 27.9314 54.6874 27.9314C55.402 27.9314 56.0885 27.8263 56.747 27.6161C57.4055 27.406 57.9869 27.0977 58.4913 26.6914C58.9957 26.2851 59.395 25.7807 59.6892 25.1783C59.9974 24.5758 60.1516 23.8893 60.1516 23.1187C60.1516 22.2781 59.9204 21.5566 59.458 20.9541C58.9957 20.3517 58.3582 19.9594 57.5456 19.7772V19.7352C58.2321 19.5391 58.7435 19.1678 59.0798 18.6214C59.43 18.075 59.6052 17.4445 59.6052 16.7299C59.6052 16.0714 59.458 15.49 59.1638 14.9856C58.8696 14.4812 58.4843 14.0539 58.0079 13.7037C57.5456 13.3534 57.0202 13.0942 56.4318 12.9261C55.8433 12.7439 55.2549 12.6529 54.6664 12.6529C53.9099 12.6529 53.2233 12.779 52.6069 13.0312C51.9904 13.2693 51.458 13.6126 51.0097 14.0609C50.5753 14.5093 50.2321 15.0487 49.9799 15.6791C49.7417 16.2956 49.6086 16.9821 49.5806 17.7387H52.4177C52.4037 16.9821 52.5859 16.3587 52.9641 15.8683C53.3564 15.3639 53.9309 15.1117 54.6874 15.1117C55.2339 15.1117 55.7172 15.2798 56.1375 15.6161C56.5579 15.9524 56.768 16.4357 56.768 17.0662C56.768 17.4865 56.6629 17.8228 56.4528 18.075C56.2566 18.3271 55.9974 18.5233 55.6752 18.6634C55.367 18.7895 55.0307 18.8665 54.6664 18.8946C54.3022 18.9226 53.9589 18.9226 53.6367 18.8946Z" fill="white"/>
<path d="M61.6281 24.3439V27.5803H64.9276V24.3439H61.6281Z" fill="white"/>
<path d="M67.1472 20.1345C67.1892 19.434 67.3643 18.8525 67.6726 18.3902C67.9808 17.9278 68.3731 17.5566 68.8494 17.2764C69.3258 16.9961 69.8582 16.8 70.4466 16.6879C71.0491 16.5618 71.6516 16.4988 72.254 16.4988C72.8004 16.4988 73.3538 16.5408 73.9143 16.6249C74.4747 16.6949 74.9861 16.842 75.4484 17.0662C75.9108 17.2904 76.289 17.6056 76.5833 18.0119C76.8775 18.4042 77.0246 18.9296 77.0246 19.5881V25.2413C77.0246 25.7317 77.0526 26.2011 77.1087 26.6494C77.1647 27.0977 77.2628 27.434 77.4029 27.6582H74.3766C74.3206 27.49 74.2715 27.3219 74.2295 27.1538C74.2015 26.9716 74.1805 26.7895 74.1664 26.6074C73.6901 27.0977 73.1297 27.441 72.4852 27.6371C71.8407 27.8333 71.1822 27.9314 70.5097 27.9314C69.9913 27.9314 69.5079 27.8683 69.0596 27.7422C68.6113 27.6161 68.219 27.42 67.8827 27.1538C67.5465 26.8876 67.2803 26.5513 67.0841 26.145C66.902 25.7387 66.8109 25.2554 66.8109 24.6949C66.8109 24.0785 66.916 23.5741 67.1261 23.1818C67.3503 22.7755 67.6305 22.4532 67.9668 22.2151C68.317 21.9769 68.7093 21.8018 69.1437 21.6897C69.592 21.5636 70.0403 21.4655 70.4887 21.3955C70.937 21.3254 71.3784 21.2694 71.8127 21.2273C72.247 21.1853 72.6323 21.1222 72.9685 21.0382C73.3048 20.9541 73.571 20.835 73.7671 20.6809C73.9633 20.5128 74.0544 20.2746 74.0403 19.9664C74.0403 19.6441 73.9843 19.3919 73.8722 19.2098C73.7742 19.0137 73.634 18.8665 73.4519 18.7685C73.2838 18.6564 73.0806 18.5863 72.8424 18.5583C72.6183 18.5163 72.3731 18.4953 72.1069 18.4953C71.5185 18.4953 71.0561 18.6214 70.7199 18.8736C70.3836 19.1257 70.1875 19.5461 70.1314 20.1345H67.1472ZM74.0403 22.3412C73.9143 22.4532 73.7531 22.5443 73.557 22.6144C73.3749 22.6704 73.1717 22.7194 72.9475 22.7615C72.7374 22.8035 72.5132 22.8385 72.275 22.8666C72.0368 22.8946 71.7987 22.9296 71.5605 22.9716C71.3363 23.0137 71.1121 23.0697 70.888 23.1398C70.6778 23.2098 70.4887 23.3079 70.3206 23.434C70.1664 23.5461 70.0403 23.6932 69.9423 23.8753C69.8442 24.0575 69.7952 24.2886 69.7952 24.5688C69.7952 24.835 69.8442 25.0592 69.9423 25.2413C70.0403 25.4235 70.1734 25.5706 70.3416 25.6827C70.5097 25.7808 70.7058 25.8508 70.93 25.8928C71.1542 25.9349 71.3854 25.9559 71.6235 25.9559C72.212 25.9559 72.6673 25.8578 72.9896 25.6617C73.3118 25.4655 73.55 25.2343 73.7041 24.9681C73.8582 24.6879 73.9493 24.4077 73.9773 24.1275C74.0193 23.8473 74.0403 23.6231 74.0403 23.455V22.3412Z" fill="white"/>
<path d="M82.1757 15.3452V12.8864H79.1915V15.3452H82.1757ZM79.1915 16.9487V27.6582H82.1757V16.9487H79.1915Z" fill="white"/>
</g>
<rect x="98.4443" width="1" height="28" fill="#919191"/>
<path d="M121.865 27.5C126.297 27.5 128.981 24.7585 128.981 20.2131C128.981 15.6818 126.297 12.9545 121.907 12.9545H116.709V27.5H121.865ZM119.784 24.8651V15.5895H121.744C124.471 15.5895 125.913 16.9815 125.913 20.2131C125.913 23.4588 124.471 24.8651 121.737 24.8651H119.784ZM135.174 27.7131C137.873 27.7131 139.691 26.3991 140.117 24.375L137.319 24.1903C137.014 25.0213 136.232 25.4545 135.224 25.4545C133.711 25.4545 132.752 24.4531 132.752 22.8267V22.8196H140.181V21.9886C140.181 18.2812 137.937 16.4489 135.053 16.4489C131.843 16.4489 129.762 18.7287 129.762 22.0952C129.762 25.554 131.815 27.7131 135.174 27.7131ZM132.752 20.9446C132.816 19.7017 133.761 18.7074 135.103 18.7074C136.417 18.7074 137.326 19.6449 137.333 20.9446H132.752ZM150.232 19.7017C149.962 17.6918 148.343 16.4489 145.587 16.4489C142.796 16.4489 140.957 17.7415 140.964 19.8438C140.957 21.4773 141.987 22.5355 144.117 22.9616L146.006 23.3381C146.958 23.5298 147.391 23.8778 147.406 24.4247C147.391 25.071 146.688 25.5327 145.63 25.5327C144.551 25.5327 143.833 25.071 143.649 24.1832L140.673 24.3395C140.957 26.4276 142.732 27.7131 145.623 27.7131C148.45 27.7131 150.474 26.2713 150.481 24.1193C150.474 22.5426 149.444 21.598 147.328 21.1648L145.353 20.767C144.337 20.5469 143.961 20.1989 143.968 19.6733C143.961 19.0199 144.7 18.5938 145.637 18.5938C146.688 18.5938 147.313 19.169 147.462 19.8722L150.232 19.7017ZM151.386 27.5H154.412V16.5909H151.386V27.5ZM152.906 15.1847C153.808 15.1847 154.547 14.4957 154.547 13.6506C154.547 12.8125 153.808 12.1236 152.906 12.1236C152.011 12.1236 151.272 12.8125 151.272 13.6506C151.272 14.4957 152.011 15.1847 152.906 15.1847ZM160.75 31.7472C163.868 31.7472 166.084 30.3267 166.084 27.6065V16.5909H163.08V18.4233H162.966C162.561 17.5355 161.673 16.4489 159.848 16.4489C157.455 16.4489 155.43 18.3097 155.43 22.0241C155.43 25.6534 157.398 27.3438 159.855 27.3438C161.595 27.3438 162.568 26.4702 162.966 25.5682H163.094V27.5639C163.094 28.9915 162.135 29.5739 160.821 29.5739C159.486 29.5739 158.811 28.9915 158.563 28.402L155.764 28.7784C156.127 30.4261 157.81 31.7472 160.75 31.7472ZM160.814 25.071C159.33 25.071 158.52 23.892 158.52 22.0099C158.52 20.1562 159.315 18.8565 160.814 18.8565C162.284 18.8565 163.108 20.0994 163.108 22.0099C163.108 23.9347 162.27 25.071 160.814 25.071ZM170.517 21.1932C170.524 19.7869 171.362 18.9631 172.584 18.9631C173.798 18.9631 174.53 19.7585 174.523 21.0938V27.5H177.548V20.554C177.548 18.0114 176.057 16.4489 173.784 16.4489C172.165 16.4489 170.993 17.2443 170.503 18.5156H170.375V16.5909H167.492V27.5H170.517V21.1932Z" fill="white"/>
<defs>
<clipPath id="clip0_467_4513">
<rect width="82.4444" height="28" fill="white"/>
</clipPath>
</defs>
</svg>
