<svg width="15" height="14" viewBox="0 0 15 14" fill="none" xmlns="http://www.w3.org/2000/svg">
<path d="M6.60449 1.09375C6.29199 1.40625 6.32324 1.875 6.60449 2.1875L10.3857 5.75H1.41699C0.979492 5.75 0.666992 6.09375 0.666992 6.5V7.5C0.666992 7.9375 0.979492 8.25 1.41699 8.25H10.3857L6.60449 11.8438C6.32324 12.1562 6.32324 12.625 6.60449 12.9375L7.29199 13.625C7.60449 13.9062 8.07324 13.9062 8.35449 13.625L14.4482 7.53125C14.7295 7.25 14.7295 6.78125 14.4482 6.46875L8.35449 0.40625C8.07324 0.125 7.60449 0.125 7.29199 0.40625L6.60449 1.09375Z" fill="#F2950A"/>
</svg>
